<svg width="26" height="27" viewBox="0 0 26 27" fill="none" xmlns="http://www.w3.org/2000/svg">
<path fill-rule="evenodd" clip-rule="evenodd" d="M13 0C11.8357 0 10.8919 0.980134 10.8919 2.18919V11.3108L2.10811 11.3108C0.943832 11.3108 0 12.2909 0 13.5C0 14.7091 0.943832 15.6892 2.10811 15.6892H10.8919V24.8108C10.8919 26.0199 11.8357 27 13 27C14.1643 27 15.1081 26.0199 15.1081 24.8108V15.6892H23.8919C25.0562 15.6892 26 14.7091 26 13.5C26 12.2909 25.0562 11.3108 23.8919 11.3108H15.1081V2.18919C15.1081 0.980133 14.1643 0 13 0Z" fill="#0E091D"/>
</svg>
