<svg width="39" height="39" viewBox="0 0 39 39" fill="none" xmlns="http://www.w3.org/2000/svg">
<path d="M30.875 4.875H8.125C6.33007 4.875 4.875 6.33007 4.875 8.125V30.875C4.875 32.6699 6.33007 34.125 8.125 34.125H30.875C32.6699 34.125 34.125 32.6699 34.125 30.875V8.125C34.125 6.33007 32.6699 4.875 30.875 4.875Z" stroke="#BDAFD3" stroke-width="2" stroke-linecap="round" stroke-linejoin="round"/>
<path d="M9.924 21.844C9.868 21.676 9.82133 21.5127 9.784 21.354C9.756 21.1953 9.73267 21.018 9.714 20.822C9.69533 20.626 9.68133 20.402 9.672 20.15C9.66267 19.898 9.658 19.5947 9.658 19.24C9.658 18.8853 9.66267 18.582 9.672 18.33C9.68133 18.078 9.69533 17.854 9.714 17.658C9.73267 17.462 9.756 17.2847 9.784 17.126C9.82133 16.9673 9.868 16.804 9.924 16.636C10.1667 15.8613 10.596 15.2827 11.212 14.9C11.8373 14.5173 12.5747 14.326 13.424 14.326C13.872 14.326 14.278 14.3773 14.642 14.48C15.006 14.5827 15.328 14.7273 15.608 14.914C15.8973 15.0913 16.14 15.306 16.336 15.558C16.5413 15.8007 16.7 16.0667 16.812 16.356C16.8587 16.4493 16.84 16.5193 16.756 16.566L15.258 17.196C15.1553 17.224 15.09 17.2007 15.062 17.126C14.8753 16.7993 14.6513 16.5567 14.39 16.398C14.138 16.23 13.816 16.146 13.424 16.146C13.0133 16.146 12.682 16.244 12.43 16.44C12.178 16.6267 12.0007 16.8833 11.898 17.21C11.87 17.294 11.8467 17.392 11.828 17.504C11.8093 17.6067 11.7907 17.7373 11.772 17.896C11.7627 18.0453 11.7533 18.232 11.744 18.456C11.744 18.6707 11.744 18.932 11.744 19.24C11.744 19.548 11.744 19.814 11.744 20.038C11.7533 20.262 11.7627 20.4533 11.772 20.612C11.7907 20.7613 11.8093 20.892 11.828 21.004C11.8467 21.1067 11.87 21.2 11.898 21.284C12.0007 21.6107 12.178 21.8673 12.43 22.054C12.6913 22.2407 13.032 22.334 13.452 22.334C13.8067 22.334 14.124 22.25 14.404 22.082C14.684 21.914 14.8753 21.6713 14.978 21.354C15.0153 21.2327 15.0433 21.0973 15.062 20.948C15.0807 20.7987 15.09 20.6213 15.09 20.416C15.09 20.36 15.062 20.332 15.006 20.332H13.718C13.6247 20.332 13.578 20.2853 13.578 20.192V18.848C13.578 18.7547 13.6247 18.708 13.718 18.708H16.994C17.0873 18.708 17.134 18.7547 17.134 18.848V19.632C17.134 20.052 17.1153 20.4487 17.078 20.822C17.0407 21.1953 16.98 21.5127 16.896 21.774C16.6533 22.5393 16.224 23.1273 15.608 23.538C15.0013 23.9487 14.2733 24.154 13.424 24.154C12.5747 24.154 11.8373 23.9627 11.212 23.58C10.596 23.1973 10.1667 22.6187 9.924 21.844ZM18.701 14.62C18.701 14.5267 18.7477 14.48 18.841 14.48H20.619C20.7123 14.48 20.759 14.5267 20.759 14.62V23.86C20.759 23.9533 20.7123 24 20.619 24H18.841C18.7477 24 18.701 23.9533 18.701 23.86V14.62ZM22.5838 14.62C22.5838 14.5267 22.6305 14.48 22.7238 14.48H28.8278C28.9212 14.48 28.9678 14.5267 28.9678 14.62V16.118C28.9678 16.2113 28.9212 16.258 28.8278 16.258H24.7258C24.6698 16.258 24.6418 16.286 24.6418 16.342V18.344C24.6418 18.4 24.6698 18.428 24.7258 18.428H28.1418C28.2352 18.428 28.2818 18.4747 28.2818 18.568V20.052C28.2818 20.1453 28.2352 20.192 28.1418 20.192H24.7258C24.6698 20.192 24.6418 20.22 24.6418 20.276V23.86C24.6418 23.9533 24.5952 24 24.5018 24H22.7238C22.6305 24 22.5838 23.9533 22.5838 23.86V14.62Z" fill="#BDAFD3"/>
</svg>
