<svg width="29" height="29" viewBox="0 0 29 29" fill="none" xmlns="http://www.w3.org/2000/svg">
<path fill-rule="evenodd" clip-rule="evenodd" d="M8.51899 3.68573C10.1052 2.09949 12.2566 1.20834 14.4999 1.20834C16.7432 1.20834 18.8946 2.09949 20.4809 3.68573C22.0671 5.27198 22.9583 7.42339 22.9583 9.66668C22.9583 13.7178 23.8247 16.2335 24.6232 17.6974C25.0241 18.4325 25.4145 18.9146 25.6857 19.2009C25.8216 19.3443 25.9284 19.4395 25.9927 19.493C26.0249 19.5199 26.0465 19.5363 26.0558 19.5432C26.0572 19.5443 26.0584 19.5452 26.0592 19.5458C26.4924 19.8433 26.6841 20.3876 26.5314 20.8918C26.3771 21.4015 25.9074 21.75 25.3749 21.75H3.62493C3.09246 21.75 2.62275 21.4015 2.46845 20.8918C2.31578 20.3876 2.50747 19.8433 2.94064 19.5458C2.94149 19.5452 2.94264 19.5443 2.94409 19.5432C2.9534 19.5363 2.97497 19.5199 3.00714 19.493C3.07144 19.4395 3.17824 19.3443 3.31414 19.2009C3.58533 18.9146 3.97572 18.4325 4.37664 17.6974C5.17514 16.2335 6.0416 13.7178 6.0416 9.66668C6.0416 7.42339 6.93274 5.27198 8.51899 3.68573ZM2.95285 19.5375C2.95295 19.5374 2.95304 19.5374 2.95314 19.5373C2.95313 19.5373 2.95313 19.5373 2.95312 19.5373L2.95285 19.5375ZM6.22203 19.3333H22.7778C22.6859 19.1827 22.5936 19.0232 22.5016 18.8547C21.4876 16.9957 20.5416 14.0739 20.5416 9.66668C20.5416 8.06433 19.9051 6.52761 18.772 5.39457C17.639 4.26154 16.1023 3.62501 14.4999 3.62501C12.8976 3.62501 11.3609 4.26154 10.2278 5.39457C9.0948 6.52761 8.45826 8.06433 8.45826 9.66668C8.45826 14.0739 7.51222 16.9957 6.49822 18.8547C6.40627 19.0232 6.31397 19.1827 6.22203 19.3333Z" fill="white"/>
<path fill-rule="evenodd" clip-rule="evenodd" d="M11.8034 24.3298C12.3806 23.9949 13.1201 24.1914 13.4549 24.7687C13.5611 24.9518 13.7136 25.1038 13.897 25.2095C14.0805 25.3151 14.2884 25.3707 14.5001 25.3707C14.7118 25.3707 14.9198 25.3151 15.1032 25.2095C15.2866 25.1038 15.4391 24.9518 15.5453 24.7687C15.8802 24.1914 16.6196 23.9949 17.1968 24.3298C17.7741 24.6647 17.9706 25.4041 17.6357 25.9813C17.3171 26.5306 16.8597 26.9866 16.3094 27.3036C15.7591 27.6206 15.1352 27.7874 14.5001 27.7874C13.8651 27.7874 13.2411 27.6206 12.6908 27.3036C12.1405 26.9866 11.6832 26.5306 11.3645 25.9813C11.0296 25.4041 11.2261 24.6647 11.8034 24.3298Z" fill="white"/>
</svg>
