<svg width="24" height="24" viewBox="0 0 24 24" fill="none" xmlns="http://www.w3.org/2000/svg">
<path fill-rule="evenodd" clip-rule="evenodd" d="M12.3834 0C8.78239 0 5.84813 1.01618 3.81499 3.05076C1.78197 5.08526 0.766672 8.0213 0.766672 11.6245C0.766672 13.6802 1.09623 15.5179 1.75943 17.0983L0.107434 21.6446C-0.393266 23.0225 0.917244 24.373 2.31045 23.9083L7.07095 22.3203C8.6145 22.9406 10.397 23.249 12.3834 23.249C15.9844 23.249 18.9187 22.2327 20.9519 20.1981C22.9848 18.1637 24.0002 15.2276 24.0002 11.6245C24.0002 8.0213 22.9848 5.08526 20.9519 3.05076C18.9187 1.01618 15.9844 0 12.3834 0Z" fill="white"/>
</svg>
