<svg width="31" height="31" viewBox="0 0 31 31" fill="none" xmlns="http://www.w3.org/2000/svg">
<path d="M26.5444 7.41331C27.071 6.89698 27.9039 6.8643 28.4689 7.31595L28.5787 7.41331C29.1405 7.96451 29.1403 8.85795 28.5787 9.40928L14.1281 23.5885L14.0194 23.6847C13.7567 23.8949 13.4351 23.9998 13.1109 24C13.059 24 13.0066 23.9973 12.955 23.9919L12.8215 23.9722C12.6891 23.9461 12.5608 23.9018 12.4411 23.84L12.2981 23.7531C12.2497 23.7194 12.2007 23.6805 12.1516 23.6372L12.1162 23.6071C12.1116 23.6033 12.1067 23.5995 12.1032 23.5966C12.0993 23.5935 12.0964 23.5907 12.0937 23.5885L3.42122 15.0807L3.32317 14.9741C2.89271 14.4566 2.89224 13.7091 3.32198 13.1914L3.42122 13.0836C3.94786 12.5673 4.78169 12.5354 5.34687 12.9874L5.45674 13.0836L13.1109 20.5923L26.5444 7.41331Z" fill="white"/>
</svg>
