<svg width="445" height="381" viewBox="0 0 445 381" fill="none" xmlns="http://www.w3.org/2000/svg">
<g clip-path="url(#clip0_795_1821)">
<rect width="445" height="381" rx="20" fill="#FFF1E5"/>
<path d="M6.13051 102.854L43.0403 290.603L163.727 142.122L71.3193 309.671L259.212 273.504L80.7255 342.456L247.907 435.526L66.8576 373.616L135.102 552.374L36.2045 388.572L-26.4207 569.376L3.10925 380.326L-161.083 478.575L-16.9426 352.736L-205.874 322.458L-14.5686 318.711L-139.836 174.075L9.12049 294.173L6.13051 102.854Z" fill="#FF6B6B"/>
<path d="M375.637 -329.248L415.274 -169.977L539.259 -277.521L467.245 -130.035L631.352 -132.723L481.383 -66.0312L608.824 37.3959L451.073 -7.91348L482.217 153.234L390.497 17.1242L310.771 160.589L327.999 -2.63344L174.708 56.02L292.823 -57.9417L137.693 -111.544L301.427 -122.921L217.046 -263.698L349.787 -167.167L375.637 -329.248Z" fill="#FF6B6B"/>
<rect x="-101" y="120" width="661.973" height="310.744" fill="url(#paint0_linear_795_1821)"/>
<rect x="222" y="141" width="15" height="100" rx="7.5" fill="#FF6B6B"/>
<rect x="280" y="183.5" width="15" height="100" rx="7.5" transform="rotate(90 280 183.5)" fill="#FF6B6B"/>
<path d="M51.44 280.104H61.616C61.04 283.112 60.016 285.544 57.776 287.208C55.568 288.872 52.112 289.8 46.608 289.8C41.136 289.8 30.992 289.416 30.992 277.576C30.992 265.736 41.136 265.352 46.608 265.352C52.048 265.352 60.432 266.056 61.616 275.112H51.44C51.184 273.48 50.096 271.112 46.608 271.112C42.928 271.112 40.592 272.936 40.592 277.576C40.592 282.216 42.864 284.04 46.16 284.04C49.008 284.04 50.704 282.856 51.44 280.104ZM64.5138 289V271.496H72.2578V274.856H72.3218C74.4018 272.136 77.0258 271.016 79.7778 271.016C80.6418 271.016 81.5378 271.08 82.4018 271.208V278.376C80.9938 278.024 79.8098 277.736 78.4018 277.736C75.5538 277.736 72.5138 278.664 72.5138 282.44V289H64.5138ZM91.902 278.088H101.438C101.278 276.2 99.454 275.016 96.702 275.016C93.918 275.016 92.318 275.88 91.902 278.088ZM100.894 283.752H109.406C108.798 285.576 107.454 287.08 105.406 288.104C103.358 289.128 100.606 289.704 96.926 289.704C88.51 289.704 83.71 286.632 83.71 280.232C83.71 274.184 88.318 270.792 96.19 270.792C103.934 270.792 109.63 273.384 109.502 282.12H91.902C91.902 283.368 93.214 285.288 96.734 285.288C98.814 285.288 100.03 284.84 100.894 283.752ZM120.642 276.808H112.642C113.122 274.408 114.114 272.936 116.098 272.008C118.05 271.112 120.962 270.792 125.186 270.792C133.346 270.792 136.578 272.616 136.578 277.832V286.28C136.578 287.624 136.93 288.424 137.314 289H129.122C128.962 288.488 128.866 287.912 128.834 287.272C127.042 288.936 124.322 289.704 120.066 289.704C114.69 289.704 111.298 288.264 111.298 283.784C111.298 280.584 113.57 278.536 119.49 278.28L126.242 277.96C127.842 277.864 128.386 277.48 128.386 276.52C128.386 275.368 126.946 274.824 124.674 274.824C122.85 274.824 121.026 275.112 120.642 276.808ZM128.578 281.8V281.032C127.234 281.32 124.962 281.512 122.114 281.768C120.642 281.896 119.938 282.376 119.938 283.496C119.938 284.712 120.93 285.48 122.914 285.48C125.602 285.48 128.578 284.808 128.578 281.8ZM138.726 276.488V271.496H142.438V265.864H150.438V271.496H154.758V276.488H150.438V282.664C150.438 284.296 151.11 284.392 152.838 284.392C153.478 284.392 154.214 284.36 154.982 284.328V289C153.574 289.192 151.654 289.384 149.158 289.384C144.294 289.384 142.438 288.456 142.438 283.688V276.488H138.726ZM164.777 278.088H174.313C174.153 276.2 172.329 275.016 169.577 275.016C166.793 275.016 165.193 275.88 164.777 278.088ZM173.769 283.752H182.281C181.673 285.576 180.329 287.08 178.281 288.104C176.233 289.128 173.481 289.704 169.801 289.704C161.385 289.704 156.585 286.632 156.585 280.232C156.585 274.184 161.193 270.792 169.065 270.792C176.809 270.792 182.505 273.384 182.377 282.12H164.777C164.777 283.368 166.089 285.288 169.609 285.288C171.689 285.288 172.905 284.84 173.769 283.752ZM198.547 294.984V289.8C199.187 289.864 199.603 289.896 200.531 289.896C202.195 289.896 202.867 289.832 203.507 288.552L203.955 287.592L195.827 271.496H204.211L208.083 280.488L211.955 271.496H220.339L210.515 291.848C209.267 294.344 208.275 295.272 203.987 295.272C202.195 295.272 200.019 295.112 198.547 294.984ZM228.969 280.232C228.969 283.048 230.345 284.52 233.545 284.52C236.777 284.52 238.121 283.048 238.121 280.232C238.121 277.48 236.777 275.976 233.545 275.976C230.345 275.976 228.969 277.48 228.969 280.232ZM220.585 280.232C220.585 273.8 224.521 270.792 233.545 270.792C242.569 270.792 246.505 273.8 246.505 280.232C246.505 286.696 242.569 289.704 233.545 289.704C224.521 289.704 220.585 286.696 220.585 280.232ZM272.173 271.496V289H264.429V287.048H264.365C263.533 288.168 260.973 289.704 257.133 289.704C252.717 289.704 249.389 287.72 249.389 282.856V271.496H257.389V280.776C257.389 282.984 258.573 283.944 260.461 283.944C262.957 283.944 264.173 282.376 264.173 279.752V271.496H272.173ZM276.014 289V271.496H283.758V274.856H283.822C285.902 272.136 288.526 271.016 291.278 271.016C292.142 271.016 293.038 271.08 293.902 271.208V278.376C292.494 278.024 291.31 277.736 289.902 277.736C287.054 277.736 284.014 278.664 284.014 282.44V289H276.014ZM325.809 289V271.496H333.809V289H325.809ZM325.809 269.768V265.352H333.809V269.768H325.809ZM311.312 289V276.488H307.601V271.496H311.312V269.64C311.312 266.44 313.201 265.16 318.385 265.16C319.921 265.16 321.969 265.192 323.633 265.352V269.576H321.233C319.761 269.576 319.313 270.024 319.313 270.984V271.496H323.633V276.488H319.313V289H311.312ZM337.639 289V271.496H345.383V274.856H345.447C347.527 272.136 350.151 271.016 352.903 271.016C353.767 271.016 354.663 271.08 355.527 271.208V278.376C354.119 278.024 352.935 277.736 351.527 277.736C348.679 277.736 345.639 278.664 345.639 282.44V289H337.639ZM370.883 282.856L363.075 282.056C358.435 281.576 357.091 279.72 357.091 276.68C357.091 272.552 360.931 270.792 368.739 270.792C374.179 270.792 380.163 271.784 380.323 276.744H371.299C371.299 276.296 371.139 275.912 370.691 275.656C370.243 275.4 369.507 275.208 368.323 275.208C365.923 275.208 365.475 275.752 365.475 276.424C365.475 276.872 365.891 277.352 367.619 277.512L375.235 278.184C379.555 278.568 381.187 280.488 381.187 283.464C381.187 287.976 377.283 289.704 368.835 289.704C360.515 289.704 356.899 287.976 356.643 283.56H366.051C366.147 284.264 366.499 284.712 367.043 284.968C367.619 285.224 368.419 285.288 369.315 285.288C371.363 285.288 371.971 284.744 371.971 283.944C371.971 283.432 371.715 282.952 370.883 282.856ZM382.257 276.488V271.496H385.969V265.864H393.969V271.496H398.289V276.488H393.969V282.664C393.969 284.296 394.641 284.392 396.369 284.392C397.009 284.392 397.745 284.36 398.513 284.328V289C397.105 289.192 395.185 289.384 392.689 289.384C387.825 289.384 385.969 288.456 385.969 283.688V276.488H382.257ZM31.92 327V309.496H39.92V327H31.92ZM31.92 307.768V303.352H39.92V307.768H31.92ZM43.7638 327V309.496H51.5078V311.672H51.5718C52.4038 310.552 54.9638 309.016 58.8038 309.016C63.2198 309.016 66.5478 311 66.5478 315.864V327H58.5478V317.944C58.5478 315.736 57.3638 314.776 55.4758 314.776C53.3638 314.776 51.7638 316.024 51.7638 318.936V327H43.7638ZM68.7568 314.488V309.496H72.4688V303.864H80.4688V309.496H84.7888V314.488H80.4688V320.664C80.4688 322.296 81.1408 322.392 82.8688 322.392C83.5088 322.392 84.2448 322.36 85.0128 322.328V327C83.6048 327.192 81.6848 327.384 79.1888 327.384C74.3248 327.384 72.4688 326.456 72.4688 321.688V314.488H68.7568ZM94.8083 316.088H104.344C104.184 314.2 102.36 313.016 99.6083 313.016C96.8243 313.016 95.2243 313.88 94.8083 316.088ZM103.8 321.752H112.312C111.704 323.576 110.36 325.08 108.312 326.104C106.264 327.128 103.512 327.704 99.8323 327.704C91.4163 327.704 86.6163 324.632 86.6163 318.232C86.6163 312.184 91.2243 308.792 99.0963 308.792C106.84 308.792 112.536 311.384 112.408 320.12H94.8083C94.8083 321.368 96.1203 323.288 99.6403 323.288C101.72 323.288 102.936 322.84 103.8 321.752ZM115.42 327V309.496H123.164V312.856H123.228C125.308 310.136 127.932 309.016 130.684 309.016C131.548 309.016 132.444 309.08 133.308 309.208V316.376C131.9 316.024 130.716 315.736 129.308 315.736C126.46 315.736 123.42 316.664 123.42 320.44V327H115.42ZM142.808 316.088H152.344C152.184 314.2 150.36 313.016 147.608 313.016C144.824 313.016 143.224 313.88 142.808 316.088ZM151.8 321.752H160.312C159.704 323.576 158.36 325.08 156.312 326.104C154.264 327.128 151.512 327.704 147.832 327.704C139.416 327.704 134.616 324.632 134.616 318.232C134.616 312.184 139.224 308.792 147.096 308.792C154.84 308.792 160.536 311.384 160.408 320.12H142.808C142.808 321.368 144.12 323.288 147.64 323.288C149.72 323.288 150.936 322.84 151.8 321.752ZM176.508 320.856L168.7 320.056C164.06 319.576 162.716 317.72 162.716 314.68C162.716 310.552 166.556 308.792 174.364 308.792C179.804 308.792 185.788 309.784 185.948 314.744H176.924C176.924 314.296 176.764 313.912 176.316 313.656C175.868 313.4 175.132 313.208 173.948 313.208C171.548 313.208 171.1 313.752 171.1 314.424C171.1 314.872 171.516 315.352 173.244 315.512L180.86 316.184C185.18 316.568 186.812 318.488 186.812 321.464C186.812 325.976 182.908 327.704 174.46 327.704C166.14 327.704 162.524 325.976 162.268 321.56H171.676C171.772 322.264 172.124 322.712 172.668 322.968C173.244 323.224 174.044 323.288 174.94 323.288C176.988 323.288 177.596 322.744 177.596 321.944C177.596 321.432 177.34 320.952 176.508 320.856ZM187.882 314.488V309.496H191.594V303.864H199.594V309.496H203.914V314.488H199.594V320.664C199.594 322.296 200.266 322.392 201.994 322.392C202.634 322.392 203.37 322.36 204.138 322.328V327C202.73 327.192 200.81 327.384 198.314 327.384C193.45 327.384 191.594 326.456 191.594 321.688V314.488H187.882ZM206.701 327V309.496H214.701V327H206.701ZM206.701 307.768V303.352H214.701V307.768H206.701ZM218.545 327V309.496H226.289V311.672H226.353C227.185 310.552 229.745 309.016 233.585 309.016C238.001 309.016 241.329 311 241.329 315.864V327H233.329V317.944C233.329 315.736 232.145 314.776 230.257 314.776C228.145 314.776 226.545 316.024 226.545 318.936V327H218.545ZM261.746 325.528V324.024C260.146 325.432 257.65 325.912 254.802 325.912C247.922 325.912 244.21 322.968 244.21 317.464C244.21 311.96 248.85 309.016 254.802 309.016C258.002 309.016 260.402 309.912 262.002 311.48V309.496H269.746V325.752C269.746 331.352 265.554 333.528 257.554 333.528C248.818 333.528 245.65 331.768 244.882 327.384H253.714C253.842 327.96 254.13 328.376 254.706 328.664C255.282 328.952 256.146 329.112 257.362 329.112C260.626 329.112 261.746 327.928 261.746 325.528ZM261.746 317.624C261.746 315.8 260.53 314.2 257.138 314.2C253.842 314.2 252.594 315.8 252.594 317.624C252.594 319.512 253.842 321.112 257.138 321.112C260.53 321.112 261.746 319.512 261.746 317.624ZM286.639 333.272V309.496H294.383V311.576H294.447C295.887 309.912 298.095 309.016 301.647 309.016C306.831 309.016 311.599 311.864 311.599 318.36C311.599 324.856 306.831 327.704 301.647 327.704C298.383 327.704 296.079 326.904 294.703 325.24H294.639V333.272H286.639ZM294.639 318.36C294.639 320.824 295.951 322.328 299.055 322.328C301.935 322.328 303.407 320.6 303.407 318.36C303.407 316.056 302.127 314.392 299.023 314.392C295.951 314.392 294.639 315.864 294.639 318.36ZM314.483 327V309.496H322.483V327H314.483ZM314.483 307.768V303.352H322.483V307.768H314.483ZM326.326 327V309.496H334.07V311.672H334.134C334.966 310.552 337.526 309.016 341.366 309.016C345.782 309.016 349.11 311 349.11 315.864V327H341.11V317.944C341.11 315.736 339.926 314.776 338.038 314.776C335.926 314.776 334.326 316.024 334.326 318.936V327H326.326Z" fill="#2D2A2A"/>
</g>
<defs>
<linearGradient id="paint0_linear_795_1821" x1="229.987" y1="430.744" x2="229.987" y2="120" gradientUnits="userSpaceOnUse">
<stop stop-color="#FDCB82"/>
<stop offset="1" stop-color="#F9AFAF" stop-opacity="0"/>
</linearGradient>
<clipPath id="clip0_795_1821">
<rect width="445" height="381" rx="20" fill="white"/>
</clipPath>
</defs>
</svg>
