<svg width="445" height="381" viewBox="0 0 445 381" fill="none" xmlns="http://www.w3.org/2000/svg">
<g clip-path="url(#clip0_838_2224)">
<g clip-path="url(#clip1_838_2224)">
<rect width="445" height="381" rx="20" fill="#FFF1E5"/>
<path d="M6.13051 102.854L43.0403 290.603L163.727 142.122L71.3193 309.671L259.212 273.504L80.7255 342.456L247.907 435.526L66.8576 373.616L135.102 552.374L36.2045 388.572L-26.4207 569.376L3.10925 380.326L-161.083 478.575L-16.9426 352.736L-205.874 322.458L-14.5686 318.711L-139.836 174.075L9.12049 294.173L6.13051 102.854Z" fill="#FF6B6B"/>
<path d="M375.637 -329.248L415.274 -169.977L539.259 -277.521L467.245 -130.035L631.352 -132.723L481.383 -66.0312L608.824 37.3959L451.073 -7.91348L482.217 153.234L390.497 17.1242L310.771 160.589L327.999 -2.63344L174.708 56.02L292.823 -57.9417L137.693 -111.544L301.427 -122.921L217.046 -263.698L349.787 -167.167L375.637 -329.248Z" fill="#FF6B6B"/>
<rect x="-101" y="120" width="661.973" height="310.744" fill="url(#paint0_linear_838_2224)"/>
<rect x="222" y="141" width="15" height="100" rx="7.5" fill="#FF6B6B"/>
<rect x="280" y="183.5" width="15" height="100" rx="7.5" transform="rotate(90 280 183.5)" fill="#FF6B6B"/>
<path d="M78.44 300.104H88.616C88.04 303.112 87.016 305.544 84.776 307.208C82.568 308.872 79.112 309.8 73.608 309.8C68.136 309.8 57.992 309.416 57.992 297.576C57.992 285.736 68.136 285.352 73.608 285.352C79.048 285.352 87.432 286.056 88.616 295.112H78.44C78.184 293.48 77.096 291.112 73.608 291.112C69.928 291.112 67.592 292.936 67.592 297.576C67.592 302.216 69.864 304.04 73.16 304.04C76.008 304.04 77.704 302.856 78.44 300.104ZM91.5138 309V291.496H99.2578V294.856H99.3218C101.402 292.136 104.026 291.016 106.778 291.016C107.642 291.016 108.538 291.08 109.402 291.208V298.376C107.994 298.024 106.81 297.736 105.402 297.736C102.554 297.736 99.5138 298.664 99.5138 302.44V309H91.5138ZM118.902 298.088H128.438C128.278 296.2 126.454 295.016 123.702 295.016C120.918 295.016 119.318 295.88 118.902 298.088ZM127.894 303.752H136.406C135.798 305.576 134.454 307.08 132.406 308.104C130.358 309.128 127.606 309.704 123.926 309.704C115.51 309.704 110.71 306.632 110.71 300.232C110.71 294.184 115.318 290.792 123.19 290.792C130.934 290.792 136.63 293.384 136.502 302.12H118.902C118.902 303.368 120.214 305.288 123.734 305.288C125.814 305.288 127.03 304.84 127.894 303.752ZM147.642 296.808H139.642C140.122 294.408 141.114 292.936 143.098 292.008C145.05 291.112 147.962 290.792 152.186 290.792C160.346 290.792 163.578 292.616 163.578 297.832V306.28C163.578 307.624 163.93 308.424 164.314 309H156.122C155.962 308.488 155.866 307.912 155.834 307.272C154.042 308.936 151.322 309.704 147.066 309.704C141.69 309.704 138.298 308.264 138.298 303.784C138.298 300.584 140.57 298.536 146.49 298.28L153.242 297.96C154.842 297.864 155.386 297.48 155.386 296.52C155.386 295.368 153.946 294.824 151.674 294.824C149.85 294.824 148.026 295.112 147.642 296.808ZM155.578 301.8V301.032C154.234 301.32 151.962 301.512 149.114 301.768C147.642 301.896 146.938 302.376 146.938 303.496C146.938 304.712 147.93 305.48 149.914 305.48C152.602 305.48 155.578 304.808 155.578 301.8ZM165.726 296.488V291.496H169.438V285.864H177.438V291.496H181.758V296.488H177.438V302.664C177.438 304.296 178.11 304.392 179.838 304.392C180.478 304.392 181.214 304.36 181.982 304.328V309C180.574 309.192 178.654 309.384 176.158 309.384C171.294 309.384 169.438 308.456 169.438 303.688V296.488H165.726ZM191.777 298.088H201.313C201.153 296.2 199.329 295.016 196.577 295.016C193.793 295.016 192.193 295.88 191.777 298.088ZM200.769 303.752H209.281C208.673 305.576 207.329 307.08 205.281 308.104C203.233 309.128 200.481 309.704 196.801 309.704C188.385 309.704 183.585 306.632 183.585 300.232C183.585 294.184 188.193 290.792 196.065 290.792C203.809 290.792 209.505 293.384 209.377 302.12H191.777C191.777 303.368 193.089 305.288 196.609 305.288C198.689 305.288 199.905 304.84 200.769 303.752ZM225.547 314.984V309.8C226.187 309.864 226.603 309.896 227.531 309.896C229.195 309.896 229.867 309.832 230.507 308.552L230.955 307.592L222.827 291.496H231.211L235.083 300.488L238.955 291.496H247.339L237.515 311.848C236.267 314.344 235.275 315.272 230.987 315.272C229.195 315.272 227.019 315.112 225.547 314.984ZM255.969 300.232C255.969 303.048 257.345 304.52 260.545 304.52C263.777 304.52 265.121 303.048 265.121 300.232C265.121 297.48 263.777 295.976 260.545 295.976C257.345 295.976 255.969 297.48 255.969 300.232ZM247.585 300.232C247.585 293.8 251.521 290.792 260.545 290.792C269.569 290.792 273.505 293.8 273.505 300.232C273.505 306.696 269.569 309.704 260.545 309.704C251.521 309.704 247.585 306.696 247.585 300.232ZM299.173 291.496V309H291.429V307.048H291.365C290.533 308.168 287.973 309.704 284.133 309.704C279.717 309.704 276.389 307.72 276.389 302.856V291.496H284.389V300.776C284.389 302.984 285.573 303.944 287.461 303.944C289.957 303.944 291.173 302.376 291.173 299.752V291.496H299.173ZM303.014 309V291.496H310.758V294.856H310.822C312.902 292.136 315.526 291.016 318.278 291.016C319.142 291.016 320.038 291.08 320.902 291.208V298.376C319.494 298.024 318.31 297.736 316.902 297.736C314.054 297.736 311.014 298.664 311.014 302.44V309H303.014ZM336.233 315.272V291.496H343.977V293.576H344.041C345.481 291.912 347.689 291.016 351.241 291.016C356.425 291.016 361.193 293.864 361.193 300.36C361.193 306.856 356.425 309.704 351.241 309.704C347.977 309.704 345.673 308.904 344.297 307.24H344.233V315.272H336.233ZM344.233 300.36C344.233 302.824 345.545 304.328 348.649 304.328C351.529 304.328 353.001 302.6 353.001 300.36C353.001 298.056 351.721 296.392 348.617 296.392C345.545 296.392 344.233 297.864 344.233 300.36ZM364.076 309V291.496H372.076V309H364.076ZM364.076 289.768V285.352H372.076V289.768H364.076ZM375.92 309V291.496H383.664V293.672H383.728C384.56 292.552 387.12 291.016 390.96 291.016C395.376 291.016 398.704 293 398.704 297.864V309H390.704V299.944C390.704 297.736 389.52 296.776 387.632 296.776C385.52 296.776 383.92 298.024 383.92 300.936V309H375.92Z" fill="#2D2A2A"/>
</g>
</g>
<defs>
<linearGradient id="paint0_linear_838_2224" x1="229.987" y1="430.744" x2="229.987" y2="120" gradientUnits="userSpaceOnUse">
<stop stop-color="#FDCB82"/>
<stop offset="1" stop-color="#F9AFAF" stop-opacity="0"/>
</linearGradient>
<clipPath id="clip0_838_2224">
<rect width="445" height="381" rx="20" fill="white"/>
</clipPath>
<clipPath id="clip1_838_2224">
<rect width="445" height="381" rx="20" fill="white"/>
</clipPath>
</defs>
</svg>
