<svg width="26" height="26" viewBox="0 0 26 26" fill="none" xmlns="http://www.w3.org/2000/svg">
<path d="M0 13.0484C0 11.1106 0.317848 9.34493 0.953545 7.75155C1.58924 6.13665 2.47922 4.75859 3.62347 3.61739C4.76773 2.45466 6.13447 1.56108 7.72372 0.936646C9.31296 0.312216 11.0717 0 13 0C14.9283 0 16.687 0.322981 18.2763 0.968943C19.8867 1.59337 21.2641 2.47619 22.4083 3.61739C23.5526 4.75859 24.4319 6.12588 25.0465 7.71926C25.6821 9.2911 26 11.0352 26 12.9516C26 14.1358 25.8411 15.1694 25.5232 16.0522C25.2266 16.9135 24.8134 17.6348 24.2836 18.2162C23.7751 18.776 23.1817 19.1959 22.5037 19.4758C21.8256 19.7557 21.1051 19.8957 20.3423 19.8957C19.3252 19.8957 18.4776 19.7019 17.7995 19.3143C17.1214 18.9267 16.6023 18.4207 16.2421 17.7963H16.2103C15.8712 18.4207 15.3733 18.9267 14.7164 19.3143C14.0595 19.6803 13.1377 19.8634 11.9511 19.8634C9.55664 19.8634 8.04156 18.8406 7.40587 16.795C7.23635 16.3213 7.1198 15.8153 7.05623 15.277C6.99267 14.7172 6.96088 13.9743 6.96088 13.0484C6.96088 12.1441 6.99267 11.412 7.05623 10.8522C7.1198 10.2923 7.23635 9.78633 7.40587 9.33416C7.72372 8.30062 8.24287 7.52547 8.96332 7.0087C9.70497 6.49193 10.6161 6.23354 11.6968 6.23354C12.5232 6.23354 13.2331 6.39503 13.8264 6.71801C14.4197 7.04099 14.8541 7.42857 15.1296 7.88075H15.1614V6.8795C15.1614 6.68571 15.2461 6.58882 15.4156 6.58882H18.467C18.6365 6.58882 18.7213 6.68571 18.7213 6.8795V14.728C18.7213 15.4385 18.8802 15.9553 19.198 16.2783C19.5371 16.6012 19.9397 16.7627 20.4059 16.7627C20.9992 16.7627 21.4866 16.4828 21.868 15.923C22.2706 15.3631 22.4719 14.3834 22.4719 12.9839C22.4719 11.5197 22.2494 10.1847 21.8044 8.97888C21.3806 7.75155 20.7555 6.70725 19.9291 5.84596C19.1027 4.98468 18.1068 4.31718 16.9413 3.84348C15.7759 3.36977 14.4621 3.13292 13 3.13292C11.5379 3.13292 10.2241 3.36977 9.05868 3.84348C7.89323 4.31718 6.89731 4.98468 6.0709 5.84596C5.2445 6.70725 4.6088 7.75155 4.16381 8.97888C3.74002 10.2062 3.52812 11.5627 3.52812 13.0484C3.52812 14.5126 3.74002 15.8476 4.16381 17.0534C4.6088 18.2592 5.2445 19.2928 6.0709 20.154C6.89731 20.9938 7.89323 21.6505 9.05868 22.1242C10.2241 22.5979 11.5379 22.8348 13 22.8348C14.3985 22.8348 15.6064 22.6948 16.6235 22.4149C17.6618 22.1565 18.6471 21.7905 19.5795 21.3168C19.7914 21.2091 19.9397 21.2522 20.0244 21.446L21.1687 23.5453C21.2747 23.7176 21.2323 23.8576 21.0416 23.9652C19.8973 24.6542 18.6789 25.1602 17.3863 25.4832C16.0937 25.8277 14.6316 26 13 26C11.0717 26 9.31296 25.677 7.72372 25.0311C6.13447 24.4066 4.76773 23.5238 3.62347 22.3826C2.47922 21.2414 1.58924 19.8849 0.953545 18.313C0.317848 16.7197 0 14.9648 0 13.0484ZM10.7751 15.2124C11.1141 16.2029 11.8134 16.6981 12.8729 16.6981C13.9535 16.6981 14.6528 16.2029 14.9707 15.2124C15.0554 14.9756 15.1084 14.7172 15.1296 14.4373C15.1508 14.1358 15.1614 13.6729 15.1614 13.0484C15.1614 12.424 15.1508 11.9718 15.1296 11.6919C15.1084 11.3905 15.0554 11.1321 14.9707 10.9168C14.6528 9.90476 13.9535 9.39876 12.8729 9.39876C11.8346 9.39876 11.1353 9.90476 10.7751 10.9168C10.7115 11.1321 10.6585 11.3905 10.6161 11.6919C10.5949 11.9718 10.5844 12.424 10.5844 13.0484C10.5844 13.6729 10.5949 14.1358 10.6161 14.4373C10.6585 14.7172 10.7115 14.9756 10.7751 15.2124Z" fill="#0E091D"/>
</svg>
