<svg width="32" height="33" viewBox="0 0 32 33" fill="none" xmlns="http://www.w3.org/2000/svg">
<path d="M27.5312 5.69834L27.3016 5.9249L4.86562 27.9265L4.64219 27.7015L3.47031 26.5296L7.40156 22.5999L7.05625 22.3655C5.20685 21.1086 3.67825 19.6569 2.54375 18.4202L2.08281 17.9046C1.79149 17.5715 1.53236 17.2612 1.30937 16.9827L0.746875 16.253C0.675494 16.157 0.612145 16.0664 0.560938 15.9952L0.421875 15.803L0.565625 15.614C0.743229 15.3815 1.00501 15.0546 1.34531 14.664L1.93594 14.0124C2.58838 13.3189 3.42708 12.5114 4.44063 11.7046L4.9625 11.3015C7.64176 9.29225 11.3862 7.4143 16.0188 7.41396L16.7734 7.42959C18.5139 7.50473 20.1136 7.83662 21.5672 8.32646L21.7625 8.39209L26.1313 4.29834L27.5312 5.69834ZM26.1531 10.6202C27.8916 11.7915 29.2465 13.076 30.1828 14.0999L30.5391 14.4999C30.8728 14.8834 31.1376 15.2138 31.3297 15.4655L31.5875 15.8155L31.4688 16.0015L31.4453 16.039C31.3596 16.1718 31.2519 16.3343 31.1234 16.5202L30.675 17.1452C30.0775 17.9485 29.2239 18.9865 28.1266 20.053L27.6422 20.5108C25.0564 22.8833 21.301 25.2348 16.4891 25.3796L16.0188 25.3858C14.6173 25.3857 13.2894 25.1524 12.0328 24.7718L11.5172 24.614L11.9016 24.2358L13.0109 23.1499L13.1375 23.0249L13.3094 23.0671C14.1739 23.2776 15.0757 23.4123 16.0188 23.4124C22.5791 23.4124 27.0889 18.5899 28.9688 16.1233L29.1406 15.8968L28.9516 15.6843C28.0731 14.6938 26.6624 13.3343 24.8078 12.128L24.4734 11.9108L24.7578 11.6312L25.75 10.6577L25.9359 10.4749L26.1531 10.6202ZM16.0188 9.38584C10.0542 9.38633 5.70916 12.9174 3.53125 15.189L3.125 15.6249L2.92344 15.8468L3.11563 16.0796L3.57344 16.6187C4.72664 17.9386 6.45732 19.6533 8.60938 21.0296L8.84219 21.178L9.03906 20.9843L11.3406 18.7093L11.5078 18.5421L11.4156 18.3265C9.65316 14.2192 13.8812 10.0285 17.9766 11.8374L18.1906 11.9327L20.1859 9.96084L19.5813 9.81553C18.4723 9.54853 17.2849 9.38584 16.0188 9.38584Z" fill="white"/>
</svg>
