<svg width="29" height="29" viewBox="0 0 29 29" fill="none" xmlns="http://www.w3.org/2000/svg">
<path d="M20.5418 25.375V22.9583C20.5418 21.6765 20.0326 20.4471 19.1262 19.5407C18.2198 18.6342 16.9904 18.125 15.7085 18.125H6.04183C4.75995 18.125 3.53057 18.6342 2.62415 19.5407C1.71772 20.4471 1.2085 21.6765 1.2085 22.9583V25.375" stroke="white" stroke-width="2.41667" stroke-linecap="round" stroke-linejoin="round"/>
<path d="M10.8748 13.2917C13.5442 13.2917 15.7082 11.1277 15.7082 8.45833C15.7082 5.78896 13.5442 3.625 10.8748 3.625C8.20546 3.625 6.0415 5.78896 6.0415 8.45833C6.0415 11.1277 8.20546 13.2917 10.8748 13.2917Z" stroke="white" stroke-width="2.41667" stroke-linecap="round" stroke-linejoin="round"/>
<path d="M27.7915 25.375V22.9584C27.7907 21.8874 27.4343 20.8471 26.7782 20.0007C26.122 19.1543 25.2034 18.5498 24.1665 18.2821" stroke="white" stroke-width="2.41667" stroke-linecap="round" stroke-linejoin="round"/>
<path d="M19.3335 3.7821C20.3732 4.0483 21.2947 4.65295 21.9527 5.50073C22.6108 6.34851 22.968 7.39119 22.968 8.4644C22.968 9.5376 22.6108 10.5803 21.9527 11.4281C21.2947 12.2758 20.3732 12.8805 19.3335 13.1467" stroke="white" stroke-width="2.41667" stroke-linecap="round" stroke-linejoin="round"/>
</svg>
