<svg width="24" height="22" viewBox="0 0 24 22" fill="none" xmlns="http://www.w3.org/2000/svg">
<path fill-rule="evenodd" clip-rule="evenodd" d="M23.9998 7.40204C23.9582 4.6339 22.3593 1.92037 19.9183 0.805707C18.6797 0.240085 17.2449 0.0994129 15.7472 0.565376C14.4876 0.957233 13.2221 1.76523 12 3.04244C10.7779 1.76523 9.51235 0.95725 8.25281 0.565419C6.75507 0.0994848 5.32023 0.240205 4.08165 0.805861C1.64075 1.92061 0.041849 4.6342 9.74791e-05 7.40235L0 7.41527C0 11.4474 2.44627 15.017 5.03366 17.5204C6.3402 18.7845 7.71891 19.8131 8.92071 20.5307C9.52131 20.8893 10.0891 21.1771 10.5912 21.3779C11.0722 21.5704 11.5682 21.714 12 21.714C12.4317 21.714 12.9278 21.5702 13.4087 21.3779C13.9109 21.1771 14.4787 20.8893 15.0793 20.5307C16.2811 19.8129 17.6597 18.7845 18.9663 17.5202C21.5537 15.0168 24 11.4471 24 7.41496L23.9998 7.40204Z" fill="white"/>
</svg>
