<svg width="29" height="29" viewBox="0 0 29 29" fill="none" xmlns="http://www.w3.org/2000/svg">
<path d="M25.375 13.8959C25.3792 15.4907 25.0065 17.064 24.2875 18.4875C23.4349 20.1934 22.1243 21.6282 20.5023 22.6312C18.8804 23.6343 17.0112 24.166 15.1042 24.1667C13.5093 24.1709 11.9361 23.7982 10.5125 23.0792L3.625 25.375L5.92083 18.4875C5.20179 17.064 4.82918 15.4907 4.83333 13.8959C4.83407 11.9888 5.36574 10.1196 6.36879 8.4977C7.37183 6.87575 8.80664 5.56509 10.5125 4.71253C11.9361 3.99349 13.5093 3.62088 15.1042 3.62503H15.7083C18.2269 3.76398 20.6058 4.82704 22.3894 6.61066C24.173 8.39427 25.2361 10.7731 25.375 13.2917V13.8959Z" stroke="white" stroke-width="2.41667" stroke-linecap="round" stroke-linejoin="round"/>
</svg>
