<svg width="32" height="39" viewBox="0 0 32 39" fill="none" xmlns="http://www.w3.org/2000/svg">
<path d="M16.8418 9.34385L16.6918 8.97324C16.222 7.80778 16.2886 6.44619 16.9883 5.29128L17.1023 5.11256C18.2859 3.36487 20.6076 2.79536 22.466 3.79605L22.6511 3.90135L28.0643 7.18089C30.0117 8.36075 30.634 10.8962 29.4542 12.8437C28.7545 13.9986 27.5785 14.6881 26.3279 14.8112L25.93 14.8499L20.2899 24.1594L20.4687 24.5464C20.5096 24.6346 20.5491 24.723 20.5865 24.8118L20.6936 25.0799C21.2957 26.6699 21.2965 28.223 20.774 29.5212L13.8608 25.3328L8.79245 33.6985L8.06997 33.2608L13.1383 24.8951L6.22507 20.7068C7.06612 19.7219 8.30788 19.0335 9.82681 18.7761L10.1989 18.7217C10.389 18.699 10.5816 18.6833 10.7759 18.674L11.2017 18.6534L16.8418 9.34385Z" stroke="white" stroke-width="1.6"/>
</svg>
