<svg width="52" height="52" viewBox="0 0 52 52" fill="none" xmlns="http://www.w3.org/2000/svg">
<path d="M26 0C40.3594 0 52 11.6406 52 26C52 40.3594 40.3594 52 26 52C11.6406 52 0 40.3594 0 26C0 11.6406 11.6406 0 26 0ZM27.0605 11.9395C26.4748 11.3537 25.5252 11.3537 24.9395 11.9395L15.3936 21.4854C14.8078 22.0711 14.8078 23.0207 15.3936 23.6064C15.9793 24.1922 16.9289 24.1922 17.5146 23.6064L24.5 16.6211V39C24.5 39.8284 25.1716 40.5 26 40.5C26.8284 40.5 27.5 39.8284 27.5 39V16.6211L34.4854 23.6064C35.0711 24.1922 36.0207 24.1922 36.6064 23.6064C37.1922 23.0207 37.1922 22.0711 36.6064 21.4854L27.0605 11.9395Z" fill="#8852CE"/>
</svg>
