<svg width="62" height="74" viewBox="0 0 62 74" fill="none" xmlns="http://www.w3.org/2000/svg">
<path d="M32.7857 18.0068L32.4976 17.2911C31.5923 15.0452 31.7208 12.4218 33.0692 10.1962L33.2899 9.85269C35.571 6.48474 40.0448 5.38612 43.6261 7.31496L43.9811 7.51863L54.4132 13.8389C58.1662 16.1126 59.3654 20.9984 57.0917 24.7513C55.7433 26.9766 53.4779 28.3046 51.0682 28.542L50.2997 28.6176L39.4313 46.5568L39.7756 47.302C39.8544 47.4723 39.9309 47.6428 40.003 47.8143L40.2087 48.3305C41.3694 51.3953 41.3758 54.3906 40.3684 56.8927L27.0423 48.8191L17.2755 64.9399L15.8823 64.0959L25.6491 47.975L12.3229 39.9014C14.0091 37.9264 16.5353 36.5723 19.625 36.1261L19.986 36.0787C20.3523 36.0348 20.7229 36.0038 21.0973 35.9858L21.9173 35.946L32.7857 18.0068Z" fill="white" stroke="white" stroke-width="3.08333"/>
</svg>
