<svg width="605" height="223" viewBox="0 0 605 223" fill="none" xmlns="http://www.w3.org/2000/svg">
<g clip-path="url(#clip0_218_1201)">
<rect width="605" height="223" fill="#BDAFD3"/>
<path d="M605 0L620.586 174.178L744.485 50.7684L644.465 194.215L818.703 179.318L649.878 224.913L792.927 325.5L634.292 251.909L679.218 420.913L605 262.57L530.782 420.913L575.708 251.909L417.072 325.5L560.122 224.913L391.297 179.318L565.535 194.215L465.515 50.7684L589.414 174.178L605 0Z" fill="#6F50CE"/>
<path d="M1.45046 -190.084L29.8543 -1.829L184.766 -112.504L85.5169 49.9651L275.327 64.7584L94.8643 125.421L230.758 258.761L53.5228 189.232L71.9143 378.727L-19.1635 211.54L-126.88 368.523L-89.1838 181.907L-272.606 232.925L-123.775 114.199L-297.078 35.3789L-106.751 40.0966L-188.845 -131.68L-46.0783 -5.72636L1.45046 -190.084Z" fill="#6F50CE"/>
<rect y="88" width="605" height="284" fill="url(#paint0_linear_218_1201)"/>
<path d="M150.312 151V116.728H178.248C187.848 116.728 191.4 121.048 191.4 128.68C191.4 135.256 187.944 140.344 178.344 140.344H163.848V151H150.312ZM163.848 124.792V131.992H172.584C175.992 131.992 177.288 130.936 177.288 128.44C177.288 125.848 175.992 124.792 172.584 124.792H163.848ZM195.64 151V116.728H224.152C228.04 116.728 230.392 117.064 232.264 117.976C234.808 119.224 236.92 122.536 236.92 126.28C236.92 129.496 235.576 132.952 231.64 134.104V134.2C233.656 134.776 235.288 136.504 235.528 139.48L236.104 146.968C236.248 148.504 236.92 149.944 237.784 151H223C222.52 149.992 222.52 148.504 222.28 144.52C222.136 141.976 221.272 140.44 218.776 140.44H209.176V151H195.64ZM209.176 125.368V131.8H218.776C221.416 131.8 222.52 130.744 222.52 128.584C222.52 125.992 220.84 125.368 218.584 125.368H209.176ZM241.812 151V116.728H278.244V125.08H255.348V129.688H276.612V138.04H255.348V142.648H278.244V151H241.812ZM282.687 151V116.728H301.743L307.359 136.648H307.455L313.071 116.728H332.127V151H319.839V126.52H319.743L312.543 151H302.271L295.071 126.52H294.975V151H282.687ZM338.894 151V116.728H352.43V151H338.894ZM358.467 137.992V116.728H372.003V137.464C372.003 141.88 374.547 143.272 378.963 143.272C383.379 143.272 385.923 141.88 385.923 137.464V116.728H399.459V137.992C399.459 148.888 392.883 152.2 378.963 152.2C365.043 152.2 358.467 148.888 358.467 137.992ZM405.359 151V116.728H424.415L430.031 136.648H430.127L435.743 116.728H454.799V151H442.511V126.52H442.415L435.215 151H424.943L417.743 126.52H417.647V151H405.359Z" fill="#4000FF"/>
<path d="M159.696 101.856L157.68 96.048H157.632L155.616 101.856H159.696ZM146.208 108L153.504 90.864H161.808L169.104 108H161.904L161.184 106.032H154.128L153.408 108H146.208ZM181.529 101.88L173.801 100.728C170.489 100.224 169.121 98.304 169.121 95.904C169.121 91.464 173.465 90.264 179.033 90.264C186.665 90.264 189.809 92.256 190.049 95.88H182.177C182.177 95.184 181.769 94.752 181.145 94.512C180.545 94.248 179.777 94.152 179.033 94.152C177.017 94.152 176.321 94.656 176.321 95.376C176.321 95.856 176.537 96.168 177.209 96.264L185.297 97.464C188.705 97.968 190.817 99.552 190.817 102.456C190.817 106.632 187.409 108.6 179.801 108.6C174.593 108.6 168.905 107.88 168.881 102.84H177.041C177.065 103.416 177.281 103.8 177.761 104.064C178.265 104.304 179.009 104.424 180.065 104.424C182.177 104.424 182.753 103.848 182.753 103.032C182.753 102.528 182.441 102.024 181.529 101.88ZM197.559 108V95.184H191.295V90.864H210.591V95.184H204.327V108H197.559ZM212.148 108V90.864H226.404C228.348 90.864 229.524 91.032 230.46 91.488C231.732 92.112 232.788 93.768 232.788 95.64C232.788 97.248 232.116 98.976 230.148 99.552V99.6C231.156 99.888 231.972 100.752 232.092 102.24L232.38 105.984C232.452 106.752 232.788 107.472 233.22 108H225.828C225.588 107.496 225.588 106.752 225.468 104.76C225.396 103.488 224.964 102.72 223.716 102.72H218.916V108H212.148ZM218.916 95.184V98.4H223.716C225.036 98.4 225.588 97.872 225.588 96.792C225.588 95.496 224.748 95.184 223.62 95.184H218.916ZM246.274 101.856L244.258 96.048H244.21L242.194 101.856H246.274ZM232.786 108L240.082 90.864H248.386L255.682 108H248.482L247.762 106.032H240.706L239.986 108H232.786ZM256.539 108V90.864H263.307V103.392H273.795V108H256.539ZM275.712 108V90.864H282.48V108H275.712ZM299.539 108L294.859 101.424L292.627 103.392V108H285.859V90.864H292.627V96.912L298.915 90.864H307.891L300.235 97.488L308.539 108H299.539ZM320.982 101.88L313.254 100.728C309.942 100.224 308.574 98.304 308.574 95.904C308.574 91.464 312.918 90.264 318.486 90.264C326.118 90.264 329.262 92.256 329.502 95.88H321.63C321.63 95.184 321.222 94.752 320.598 94.512C319.998 94.248 319.23 94.152 318.486 94.152C316.47 94.152 315.774 94.656 315.774 95.376C315.774 95.856 315.99 96.168 316.662 96.264L324.75 97.464C328.158 97.968 330.27 99.552 330.27 102.456C330.27 106.632 326.862 108.6 319.254 108.6C314.046 108.6 308.358 107.88 308.334 102.84H316.494C316.518 103.416 316.734 103.8 317.214 104.064C317.718 104.304 318.462 104.424 319.518 104.424C321.63 104.424 322.206 103.848 322.206 103.032C322.206 102.528 321.894 102.024 320.982 101.88Z" fill="white"/>
</g>
<defs>
<linearGradient id="paint0_linear_218_1201" x1="302.5" y1="372" x2="302.5" y2="88" gradientUnits="userSpaceOnUse">
<stop stop-color="#4000FF"/>
<stop offset="1" stop-color="#0095FF" stop-opacity="0"/>
</linearGradient>
<clipPath id="clip0_218_1201">
<rect width="605" height="223" fill="white"/>
</clipPath>
</defs>
</svg>
