<svg width="24" height="24" viewBox="0 0 24 24" fill="none" xmlns="http://www.w3.org/2000/svg">
<path fill-rule="evenodd" clip-rule="evenodd" d="M16.7801 0.878996C16.5555 1.55264 16.9196 2.28077 17.5932 2.50531C18.4721 2.79828 19.1696 3.24327 19.7026 3.857H5.57122C2.9676 3.857 0.856934 5.96767 0.856934 8.57129V10.2856C0.856934 10.9957 1.43257 11.5713 2.14265 11.5713C2.85272 11.5713 3.42836 10.9957 3.42836 10.2856V8.57129C3.42836 7.38782 4.38775 6.42843 5.57122 6.42843H19.7026C19.1696 7.04215 18.4721 7.48716 17.5932 7.78013C16.9196 8.00467 16.5555 8.73279 16.7801 9.40644C17.0046 10.0801 17.7327 10.4441 18.4064 10.2196C20.7085 9.45219 22.2917 7.87586 23.0664 5.58005C23.1157 5.44352 23.1426 5.29627 23.1426 5.14272C23.1426 4.98915 23.1157 4.8419 23.0664 4.70537C22.2917 2.40956 20.7085 0.833246 18.4064 0.0658392C17.7327 -0.158708 17.0046 0.205355 16.7801 0.878996ZM0.933231 18.4196C0.883853 18.5562 0.856934 18.7035 0.856934 18.8571C0.856934 19.0105 0.88385 19.1578 0.933223 19.2944C1.70784 21.5902 3.29098 23.1664 5.59321 23.9339C6.26686 24.1585 6.99499 23.7944 7.21952 23.1207C7.44408 22.4471 7.08001 21.7189 6.40637 21.4943C5.52745 21.2014 4.82993 20.7565 4.29706 20.1428H18.4284C21.032 20.1428 23.1426 18.032 23.1426 15.4284V13.7141C23.1426 13.0041 22.567 12.4284 21.8569 12.4284C21.1469 12.4284 20.5712 13.0041 20.5712 13.7141V15.4284C20.5712 16.6119 19.6119 17.5714 18.4284 17.5714H4.29706C4.82993 16.9576 5.52745 16.5126 6.40637 16.2196C7.08001 15.995 7.44408 15.2669 7.21952 14.5933C6.99499 13.9196 6.26686 13.5556 5.59321 13.7801C3.291 14.5475 1.70786 16.1238 0.933231 18.4196Z" fill="white"/>
</svg>
