<svg width="21" height="25" viewBox="0 0 21 25" fill="none" xmlns="http://www.w3.org/2000/svg">
<path fill-rule="evenodd" clip-rule="evenodd" d="M16.4925 0.305097C16.0824 -0.101699 15.4176 -0.101699 15.0075 0.305097C14.5975 0.711893 14.5975 1.37144 15.0075 1.77824L17.4151 4.16667H5.25C3.85761 4.16667 2.52225 4.7154 1.53769 5.69215C0.553123 6.6689 1.744e-08 7.99366 1.744e-08 9.375L1.74402e-08 11.4583C1.74402e-08 12.0336 0.470101 12.5 1.05 12.5C1.6299 12.5 2.1 12.0336 2.1 11.4583V9.375C2.1 8.5462 2.43187 7.75134 3.02261 7.16529C3.61335 6.57924 4.41457 6.25 5.25 6.25H17.4151L15.0075 8.63843C14.5975 9.04523 14.5975 9.70477 15.0075 10.1116C15.4176 10.5184 16.0824 10.5184 16.4925 10.1116L20.6925 5.9449C20.8847 5.75422 20.9868 5.508 20.9988 5.2583C20.9996 5.24166 21 5.22499 21 5.20833L16.4925 0.305097ZM16.4925 0.305097L20.6925 4.47176C20.895 4.67272 20.9975 4.93535 21 5.19872L16.4925 0.305097ZM5.99246 14.8884C6.40251 15.2952 6.40251 15.9548 5.99246 16.3616L3.58492 18.75H15.75C16.5854 18.75 17.3866 18.4208 17.9774 17.8347C18.5681 17.2487 18.9 16.4538 18.9 15.625V13.5417C18.9 12.9664 19.3701 12.5 19.95 12.5C20.5299 12.5 21 12.9664 21 13.5417V15.625C21 17.0063 20.4469 18.3311 19.4623 19.3078C18.4777 20.2846 17.1424 20.8333 15.75 20.8333H3.58492L5.99246 23.2218C6.40251 23.6286 6.40251 24.2881 5.99246 24.6949C5.58241 25.1017 4.91759 25.1017 4.50754 24.6949L0.307538 20.5282C-0.00184225 20.2213 -0.0777973 19.7705 0.0796726 19.3929" fill="#0E091D"/>
</svg>
