<svg width="31" height="31" viewBox="0 0 31 31" fill="none" xmlns="http://www.w3.org/2000/svg">
<path d="M16.421 1.71777C18.2826 1.71777 20.0869 2.08252 21.7864 2.80141L22.0915 2.93492C23.6105 3.62067 24.9798 4.56727 26.1668 5.75423L26.4004 5.99409C27.5552 7.20507 28.4688 8.59586 29.1196 10.1346L29.25 10.4552C29.8824 12.0605 30.2032 13.7548 30.2032 15.4999C30.2032 17.245 29.8824 18.9393 29.25 20.5447L29.1196 20.8646C28.4687 22.4034 27.5553 23.7947 26.4004 25.0058L26.1668 25.2449C24.9797 26.4319 23.6105 27.3792 22.0915 28.065L21.7864 28.1985C20.0869 28.9174 18.2826 29.2821 16.421 29.2821C13.8701 29.2821 11.3992 28.5862 9.24003 27.2654L8.81232 26.993C7.01333 25.7998 5.53118 24.2167 4.46692 22.3643L2.98275 19.7809V25.7952C2.98275 26.3999 2.49292 26.8904 1.88825 26.8905C1.28347 26.8905 0.792969 26.4 0.792969 25.7952V18.636C0.792992 18.0312 1.28348 17.5407 1.88825 17.5407H8.95127C9.55604 17.5407 10.0465 18.0312 10.0465 18.636C10.0465 19.2407 9.55612 19.7311 8.95127 19.7312H5.5459L6.15913 20.8964C7.06536 22.6179 8.38968 24.0846 10.0233 25.168L10.3827 25.397C12.1981 26.5073 14.2775 27.0916 16.421 27.0916C19.5159 27.0916 22.4298 25.8846 24.6182 23.6963L24.82 23.489C26.8803 21.3257 28.0134 18.4979 28.0134 15.4999C28.0134 12.4051 26.8065 9.49121 24.6182 7.30283C22.4298 5.11443 19.5159 3.90755 16.421 3.90755C15.2522 3.90756 14.1026 4.08035 12.9978 4.42142L12.5266 4.57822C11.4721 4.95429 10.4822 5.47927 9.57848 6.14158L9.19656 6.43422C7.31163 7.9385 5.93108 10.0107 5.27266 12.3135L5.15079 12.7769C5.01816 13.3282 4.48976 13.6813 3.93985 13.6067L3.82963 13.5857C3.24163 13.4443 2.8793 12.8525 3.02078 12.2646L3.09142 11.9859C3.45672 10.596 4.03617 9.27774 4.81623 8.06278L5.13139 7.59237C5.88885 6.51211 6.79501 5.54891 7.83038 4.72261L8.28448 4.37485C9.35976 3.58679 10.537 2.96228 11.7915 2.51497L12.0702 2.41872C13.4691 1.95347 14.9309 1.71778 16.421 1.71777Z" fill="white"/>
</svg>
