<svg width="20" height="24" viewBox="0 0 20 24" fill="none" xmlns="http://www.w3.org/2000/svg">
<path fill-rule="evenodd" clip-rule="evenodd" d="M9.99986 0C7.71751 0 5.84104 0.298443 4.08391 0.577906L3.75618 0.629943C2.1651 0.881707 0.91012 2.20543 0.816932 3.858C0.475994 9.90358 0.489966 15.7117 0.858794 21.7764C0.929937 22.9462 1.8785 24.1647 3.31363 23.9832C5.55782 23.6991 7.82987 22.3629 9.99986 20.9469C12.1699 22.3629 14.4419 23.6991 16.6861 23.9832C18.1213 24.1647 19.0698 22.9462 19.1409 21.7764C19.5097 15.7117 19.5238 9.90358 19.1828 3.858C19.0897 2.20543 17.8347 0.881707 16.2436 0.629943L15.9159 0.577908C14.1587 0.298443 12.2822 0 9.99986 0Z" fill="white"/>
</svg>
