<svg width="29" height="29" viewBox="0 0 29 29" fill="none" xmlns="http://www.w3.org/2000/svg">
<g clip-path="url(#clip0_218_1045)">
<path d="M14.5 18.125C16.502 18.125 18.125 16.502 18.125 14.5C18.125 12.498 16.502 10.875 14.5 10.875C12.498 10.875 10.875 12.498 10.875 14.5C10.875 16.502 12.498 18.125 14.5 18.125Z" stroke="white" stroke-width="2.41667" stroke-linecap="round" stroke-linejoin="round"/>
<path d="M23.4418 18.125C23.281 18.4894 23.233 18.8937 23.3041 19.2857C23.3751 19.6777 23.562 20.0394 23.8406 20.3241L23.9131 20.3966C24.1378 20.6211 24.316 20.8876 24.4376 21.181C24.5593 21.4744 24.6219 21.7889 24.6219 22.1064C24.6219 22.424 24.5593 22.7385 24.4376 23.0319C24.316 23.3253 24.1378 23.5918 23.9131 23.8162C23.6886 24.0409 23.4221 24.2192 23.1287 24.3408C22.8353 24.4624 22.5209 24.525 22.2033 24.525C21.8857 24.525 21.5712 24.4624 21.2778 24.3408C20.9845 24.2192 20.7179 24.0409 20.4935 23.8162L20.421 23.7437C20.1362 23.4652 19.7745 23.2783 19.3825 23.2072C18.9906 23.1362 18.5863 23.1841 18.2218 23.345C17.8644 23.4982 17.5596 23.7525 17.345 24.0767C17.1303 24.4009 17.015 24.7807 17.0135 25.1696V25.375C17.0135 26.0159 16.7589 26.6306 16.3057 27.0838C15.8525 27.537 15.2378 27.7916 14.5968 27.7916C13.9559 27.7916 13.3412 27.537 12.888 27.0838C12.4348 26.6306 12.1802 26.0159 12.1802 25.375V25.2662C12.1708 24.8663 12.0413 24.4784 11.8086 24.153C11.5759 23.8276 11.2506 23.5797 10.8752 23.4416C10.5107 23.2808 10.1064 23.2328 9.71445 23.3039C9.32247 23.375 8.96078 23.5618 8.676 23.8404L8.6035 23.9129C8.37905 24.1376 8.11252 24.3158 7.81914 24.4375C7.52576 24.5591 7.21129 24.6217 6.8937 24.6217C6.57612 24.6217 6.26164 24.5591 5.96827 24.4375C5.67489 24.3158 5.40836 24.1376 5.18391 23.9129C4.95922 23.6885 4.78097 23.4219 4.65935 23.1285C4.53773 22.8352 4.47514 22.5207 4.47514 22.2031C4.47514 21.8855 4.53773 21.571 4.65935 21.2777C4.78097 20.9843 4.95922 20.7178 5.18391 20.4933L5.25641 20.4208C5.53498 20.136 5.72185 19.7743 5.79292 19.3824C5.86399 18.9904 5.81601 18.5861 5.65516 18.2216C5.50199 17.8643 5.24766 17.5595 4.92348 17.3448C4.59929 17.1301 4.21941 17.0149 3.83058 17.0133H3.62516C2.98422 17.0133 2.36953 16.7587 1.91632 16.3055C1.46311 15.8523 1.2085 15.2376 1.2085 14.5966C1.2085 13.9557 1.46311 13.341 1.91632 12.8878C2.36953 12.4346 2.98422 12.18 3.62516 12.18H3.73391C4.13386 12.1706 4.52175 12.0412 4.84715 11.8084C5.17255 11.5757 5.4204 11.2505 5.5585 10.875C5.71934 10.5105 5.76732 10.1062 5.69625 9.71427C5.62518 9.32229 5.43831 8.96059 5.15975 8.67581L5.08725 8.60331C4.86255 8.37887 4.6843 8.11234 4.56269 7.81896C4.44107 7.52558 4.37847 7.21111 4.37847 6.89352C4.37847 6.57593 4.44107 6.26146 4.56269 5.96808C4.6843 5.6747 4.86255 5.40817 5.08725 5.18373C5.31169 4.95904 5.57822 4.78079 5.8716 4.65917C6.16498 4.53755 6.47945 4.47495 6.79704 4.47495C7.11463 4.47495 7.4291 4.53755 7.72248 4.65917C8.01586 4.78079 8.28239 4.95904 8.50683 5.18373L8.57933 5.25623C8.86411 5.5348 9.22581 5.72166 9.61778 5.79274C10.0098 5.86381 10.414 5.81583 10.7785 5.65498H10.8752C11.2326 5.50181 11.5374 5.24748 11.752 4.92329C11.9667 4.59911 12.0819 4.21922 12.0835 3.8304V3.62498C12.0835 2.98404 12.3381 2.36935 12.7913 1.91614C13.2445 1.46293 13.8592 1.20831 14.5002 1.20831C15.1411 1.20831 15.7558 1.46293 16.209 1.91614C16.6622 2.36935 16.9168 2.98404 16.9168 3.62498V3.73373C16.9184 4.12256 17.0336 4.50244 17.2483 4.82663C17.463 5.15081 17.7678 5.40514 18.1252 5.55831C18.4896 5.71916 18.8939 5.76714 19.2859 5.69607C19.6779 5.625 20.0396 5.43813 20.3243 5.15956L20.3968 5.08706C20.6213 4.86237 20.8878 4.68412 21.1812 4.5625C21.4746 4.44089 21.789 4.37829 22.1066 4.37829C22.4242 4.37829 22.7387 4.44089 23.0321 4.5625C23.3254 4.68412 23.592 4.86237 23.8164 5.08706C24.0411 5.31151 24.2194 5.57804 24.341 5.87142C24.4626 6.16479 24.5252 6.47927 24.5252 6.79685C24.5252 7.11444 24.4626 7.42892 24.341 7.72229C24.2194 8.01567 24.0411 8.2822 23.8164 8.50665L23.7439 8.57915C23.4653 8.86393 23.2785 9.22562 23.2074 9.6176C23.1363 10.0096 23.1843 10.4139 23.3452 10.7783V10.875C23.4983 11.2324 23.7527 11.5372 24.0769 11.7519C24.401 11.9666 24.7809 12.0818 25.1697 12.0833H25.3752C26.0161 12.0833 26.6308 12.3379 27.084 12.7911C27.5372 13.2444 27.7918 13.859 27.7918 14.5C27.7918 15.1409 27.5372 15.7556 27.084 16.2088C26.6308 16.662 26.0161 16.9166 25.3752 16.9166H25.2664C24.8776 16.9182 24.4977 17.0334 24.1735 17.2481C23.8493 17.4628 23.595 17.7676 23.4418 18.125Z" stroke="white" stroke-width="2.41667" stroke-linecap="round" stroke-linejoin="round"/>
</g>
<defs>
<clipPath id="clip0_218_1045">
<rect width="29" height="29" fill="white"/>
</clipPath>
</defs>
</svg>
