<svg width="24" height="24" viewBox="0 0 24 24" fill="none" xmlns="http://www.w3.org/2000/svg">
<path fill-rule="evenodd" clip-rule="evenodd" d="M15.0467 1.24219C15.8987 0.390113 17.0961 0 18.4736 0C19.8514 0 21.0486 0.390113 21.9006 1.24219C22.7528 2.09427 23.143 3.29158 23.143 4.66922C23.143 6.04685 22.7528 7.24418 21.9006 8.09625C21.0486 8.94833 19.8514 9.33843 18.4736 9.33843C17.0961 9.33843 15.8987 8.94833 15.0467 8.09625C14.7311 7.78065 14.4788 7.41768 14.2863 7.01573C12.8644 7.43283 12.0795 7.66838 11.3431 7.96824C10.746 8.21138 10.1728 8.50071 9.3116 8.98721C9.91536 9.79522 10.1954 10.833 10.1954 12.0001C10.1954 13.1675 9.91529 14.2053 9.31138 15.0134C10.173 15.5001 10.7464 15.7895 11.3438 16.0327C12.08 16.3324 12.8648 16.568 14.2862 16.9849C14.4787 16.5828 14.731 16.2197 15.0467 15.904C15.8987 15.0519 17.0961 14.6618 18.4736 14.6618C19.8514 14.6618 21.0486 15.0519 21.9006 15.904C22.7528 16.7561 23.143 17.9534 23.143 19.331C23.143 20.7087 22.7528 21.906 21.9006 22.758C21.0486 23.6102 19.8514 24.0003 18.4736 24.0003C17.0961 24.0003 15.8987 23.6102 15.0467 22.758C14.2347 21.9461 13.8422 20.8205 13.8071 19.5242C12.2626 19.0719 11.2878 18.7863 10.3741 18.4143C9.34765 17.9964 8.41416 17.4775 6.82606 16.5475C6.82256 16.5455 6.8191 16.5434 6.81565 16.5413C6.40901 16.6275 5.97725 16.6694 5.52615 16.6694C4.14852 16.6694 2.95121 16.2792 2.09912 15.4272C1.24705 14.5751 0.856934 13.3778 0.856934 12.0001C0.856934 10.6225 1.24705 9.42518 2.09912 8.57311C2.95121 7.72102 4.14852 7.33092 5.52615 7.33092C5.97744 7.33092 6.40935 7.37278 6.81613 7.45903C6.8186 7.45755 6.82105 7.45611 6.82352 7.45466C8.41277 6.52404 9.34666 6.00475 10.3734 5.58669C11.2873 5.21455 12.2622 4.92886 13.8071 4.47651C13.8421 3.17998 14.2346 2.0543 15.0467 1.24219Z" fill="white"/>
</svg>
