<svg width="1920" height="951" viewBox="0 0 1920 951" fill="none" xmlns="http://www.w3.org/2000/svg">
<path d="M2362 369.758C2252.83 259.171 1951.48 71.1726 1619.5 203.877C1204.53 369.758 1395.58 513.331 1331.53 661.479C1268.88 806.37 1012.54 782.363 912.097 764.44C821.861 744.992 609.082 655.874 479.855 454.986C318.322 203.877 165.143 42.5723 -79.385 96.3406C-275.008 139.355 -402.638 209.979 -442 239.913" stroke="url(#paint0_linear_154_140)" stroke-width="131"/>
<path d="M-422 327.325C-167 80.4713 -314.912 199.64 -7 113.325C364 9.32461 226.416 246.296 451.5 226.178C606.5 212.324 923.5 -98.6754 1024.5 184.825C1066.71 349.456 970.5 504.324 1257 562.824C1476.5 588.324 1537.49 559.217 1622.5 371.325C1720 155.825 1836.5 395.325 2056 348.325C2231.6 310.725 2314 330.825 2411.5 431.178" stroke="url(#paint1_linear_154_140)" stroke-width="131"/>
<path d="M-48 636.501C50 733.167 320.5 897.501 618.5 781.501C991 636.501 819.5 511 877 381.501C933.236 254.849 1163.33 275.834 1253.5 291.501C1334.5 308.501 1525.5 386.401 1641.5 562.001C1786.5 781.501 1924 922.501 2143.5 875.501C2319.1 837.901 2433.67 776.167 2469 750.001" stroke="url(#paint2_linear_154_140)" stroke-width="131"/>
<defs>
<linearGradient id="paint0_linear_154_140" x1="2362" y1="429.904" x2="-442" y2="429.904" gradientUnits="userSpaceOnUse">
<stop stop-color="#42385F"/>
<stop offset="1" stop-color="#6F50CE"/>
</linearGradient>
<linearGradient id="paint1_linear_154_140" x1="-105.5" y1="265.102" x2="2411.5" y2="265.102" gradientUnits="userSpaceOnUse">
<stop stop-color="#240F65"/>
<stop offset="1" stop-color="#564193"/>
</linearGradient>
<linearGradient id="paint2_linear_154_140" x1="-48" y1="583.925" x2="2469" y2="583.925" gradientUnits="userSpaceOnUse">
<stop stop-color="#181031"/>
<stop offset="1" stop-color="#3F2E72"/>
</linearGradient>
</defs>
</svg>
