<svg width="20" height="6" viewBox="0 0 20 6" fill="none" xmlns="http://www.w3.org/2000/svg">
<path fill-rule="evenodd" clip-rule="evenodd" d="M2.85714 0.142822C2.03996 0.142822 1.30066 0.374865 0.766353 0.909179C0.232046 1.44348 0 2.18278 0 2.99997C0 3.81715 0.232046 4.55645 0.766353 5.09075C1.30066 5.62506 2.03996 5.85711 2.85714 5.85711C3.67433 5.85711 4.41363 5.62506 4.94793 5.09075C5.48224 4.55645 5.71429 3.81715 5.71429 2.99997C5.71429 2.18278 5.48224 1.44348 4.94793 0.909179C4.41363 0.374865 3.67433 0.142822 2.85714 0.142822ZM7.94304 0.909179C8.47734 0.374865 9.21664 0.142822 10.0338 0.142822C10.851 0.142822 11.5903 0.374865 12.1246 0.909179C12.6589 1.44348 12.891 2.18278 12.891 2.99997C12.891 3.81715 12.6589 4.55645 12.1246 5.09075C11.5903 5.62506 10.851 5.85711 10.0338 5.85711C9.21664 5.85711 8.47734 5.62506 7.94304 5.09075C7.40873 4.55645 7.17669 3.81715 7.17669 2.99997C7.17669 2.18278 7.40873 1.44348 7.94304 0.909179ZM17.1429 0.142822C16.3257 0.142822 15.5864 0.374865 15.052 0.909179C14.5177 1.44348 14.2857 2.18278 14.2857 2.99997C14.2857 3.81715 14.5177 4.55645 15.052 5.09075C15.5864 5.62506 16.3257 5.85711 17.1429 5.85711C17.96 5.85711 18.6993 5.62506 19.2337 5.09075C19.768 4.55645 20 3.81715 20 2.99997C20 2.18278 19.768 1.44348 19.2337 0.909179C18.6993 0.374865 17.96 0.142822 17.1429 0.142822Z" fill="white"/>
</svg>
