<svg width="24" height="20" viewBox="0 0 24 20" fill="none" xmlns="http://www.w3.org/2000/svg">
<path fill-rule="evenodd" clip-rule="evenodd" d="M3.53203 4.38088C5.63073 2.39716 8.61718 0.571533 12 0.571533C15.3828 0.571533 18.3693 2.39716 20.4681 4.38088C21.5256 5.3806 22.3879 6.4478 22.9918 7.40356C23.2935 7.8812 23.5383 8.34267 23.7101 8.76404C23.8757 9.16986 24 9.6014 24 10.0001C24 10.3988 23.8757 10.8303 23.7101 11.2362C23.5383 11.6575 23.2935 12.119 22.9918 12.5966C22.3879 13.5524 21.5256 14.6196 20.4681 15.6194C18.3693 17.6031 15.3828 19.4287 12 19.4287C8.61718 19.4287 5.63073 17.6031 3.53203 15.6194C2.47435 14.6196 1.61209 13.5524 1.00819 12.5966C0.706389 12.119 0.461731 11.6575 0.289865 11.2362C0.124335 10.8303 0 10.3988 0 10.0001C0 9.6014 0.124335 9.16986 0.289865 8.76404C0.461731 8.34267 0.706389 7.8812 1.00819 7.40356C1.61209 6.4478 2.47435 5.3806 3.53203 4.38088ZM9.15981 7.15991C9.84468 6.47505 10.824 6.14296 12 6.14296C13.176 6.14296 14.1553 6.47505 14.8402 7.15991C15.5251 7.84479 15.8571 8.82407 15.8571 10.0001C15.8571 11.1761 15.5251 12.1554 14.8402 12.8403C14.1553 13.5252 13.176 13.8572 12 13.8572C10.824 13.8572 9.84468 13.5252 9.15981 12.8403C8.47495 12.1554 8.14286 11.1761 8.14286 10.0001C8.14286 8.82407 8.47495 7.84479 9.15981 7.15991Z" fill="white"/>
</svg>
